# xmcd CD database file
#
# Track frame offsets:
#	150
#	19590
#	35750
#	57285
#	81950
#	104862
#	125655
#	142125
#	160000
#	177675
#	200585
#	222840
#
# Disc length: 3211 seconds
#
# Revision: 0
# Processed by: cddbd v1.5.2PL0 Copyright (c) Steve Scherf et al.
# Submitted via: CDex 1.51
#
DISCID=ba0c890c
DTITLE=Acama - Best of Acama - Vol 1
DYEAR=1900
DGENRE=New Age
TTITLE0=Ceramica
TTITLE1=San Gimignano
TTITLE2=Madeira
TTITLE3=Toscana
TTITLE4=Sonata Blu
TTITLE5=Lumen
TTITLE6=Sail Away
TTITLE7=Dying Bull
TTITLE8=Plankton
TTITLE9=Sundown
TTITLE10=Temple of Love
TTITLE11=Weihnachtsliebe
EXTD=
EXTT0=
EXTT1=
EXTT2=
EXTT3=
EXTT4=
EXTT5=
EXTT6=
EXTT7=
EXTT8=
EXTT9=
EXTT10=
EXTT11=
PLAYORDER=
